<svg width="40" height="15" viewBox="0 0 40 15" fill="none" xmlns="http://www.w3.org/2000/svg">
<g clip-path="url(#clip0_2337_2365)">
<path d="M32.431 0C36.6105 0 40 3.35857 40 7.5C40 11.6414 36.6105 15 32.431 15H7.56892C3.38944 15 0 11.6414 0 7.5C0 3.35857 3.38944 0 7.56892 0H32.431Z" fill="#00DE5A"/>
<path d="M7.58098 12.9373C4.5456 12.9373 2.08496 10.503 2.08496 7.50013C2.08496 4.49727 4.5456 2.06299 7.58098 2.06299C10.6164 2.06299 13.077 4.49727 13.077 7.50013C13.0785 10.503 10.6178 12.9373 7.58098 12.9373ZM8.64235 4.78013V7.77014L6.51817 4.78013H4.83296V10.2173H6.52106V7.22729L8.64524 10.2173H10.3304V4.78013H8.64235Z" fill="black"/>
<path d="M34.7887 4.04549L33.1598 7.73978L31.3606 4.04549H29.7172L32.4407 9.28835L31.3461 11.7169H32.8985L36.3396 4.04549H34.7887ZM27.4255 9.92406H28.897V4.04406H27.4255V4.52692C26.9201 4.12406 26.3483 3.91406 25.6551 3.91406C23.9815 3.91406 22.6703 5.27406 22.6703 6.98263C22.6703 8.69121 23.9815 10.0512 25.6551 10.0512C26.3483 10.0512 26.9201 9.84121 27.4255 9.43835V9.92406ZM25.8689 8.86121C24.884 8.86121 24.1432 8.05549 24.1432 6.98549C24.1432 5.91549 24.8855 5.10978 25.8689 5.10978C26.8523 5.10978 27.5945 5.91549 27.5945 6.98549C27.5959 8.05406 26.8537 8.86121 25.8689 8.86121ZM17.2032 9.46978C17.6985 9.85406 18.253 10.0541 18.9216 10.0541C20.5952 10.0541 21.9064 8.69406 21.9064 6.98549C21.9064 5.27692 20.5952 3.91692 18.9216 3.91692C18.2284 3.91692 17.6566 4.12692 17.1512 4.52978V4.04692H15.6797V11.7183H17.2017V9.46978H17.2032ZM16.9822 6.98549C16.9822 5.91549 17.7245 5.10978 18.7078 5.10978C19.6912 5.10978 20.4335 5.91549 20.4335 6.98549C20.4335 8.05549 19.6912 8.86121 18.7078 8.86121C17.7245 8.86121 16.9822 8.05406 16.9822 6.98549Z" fill="black"/>
</g>
<defs>
<clipPath id="clip0_2337_2365">
<rect width="40" height="15" fill="white"/>
</clipPath>
</defs>
</svg>
