<svg width="56" height="13" viewBox="0 0 56 13" fill="none" xmlns="http://www.w3.org/2000/svg">
<g clip-path="url(#clip0_2355_3228)">
<path d="M54.0192 1.91199C52.9144 0.841406 51.3525 0.191406 49.6382 0.191406C47.9239 0.191406 46.4001 0.841406 45.2573 1.91199C44.1144 3.02082 43.4668 4.58847 43.4668 6.38552C43.4668 8.18258 44.1144 9.75023 45.2573 10.8591C46.362 11.9296 47.9239 12.5796 49.6382 12.5796C51.3525 12.5796 52.8763 11.9296 54.0192 10.8591C55.162 9.75023 55.8097 8.18258 55.8097 6.38552C55.8097 4.58847 55.162 3.02082 54.0192 1.91199ZM52.0382 8.71788C51.4668 9.36788 50.6287 9.75023 49.6382 9.75023C48.6478 9.75023 47.8097 9.36788 47.2382 8.71788C46.7049 8.10611 46.4001 7.34141 46.4001 6.38552C46.4001 5.42964 46.7049 4.6267 47.2382 4.05317C47.8097 3.40317 48.6477 3.02082 49.6763 3.02082C50.7049 3.02082 51.5049 3.40317 52.0763 4.05317C52.6097 4.66494 52.9144 5.42964 52.9144 6.38552C52.9144 7.34141 52.6097 8.10611 52.0763 8.71788H52.0382Z" fill="#ED1E2C"/>
<path d="M41.0286 8.33537V8.41184C40.5715 8.9089 40.1524 9.25302 39.6191 9.4442C39.2 9.63537 38.7048 9.75008 38.1715 9.75008C37.1429 9.75008 36.2286 9.40596 35.6191 8.75596C35.0477 8.18243 34.7429 7.30302 34.7429 6.38537C34.7429 5.46773 35.1619 4.39714 35.9238 3.78537C36.5334 3.28832 37.181 3.02067 38.1715 3.02067C39.1619 3.02067 39.0858 3.09714 39.5048 3.28832C40 3.47949 40.381 3.78537 40.8 4.16773L40.8762 4.2442L43.0096 2.44714V2.37067C42.3619 1.60596 41.6381 1.07067 40.9524 0.764786C40.1524 0.420669 39.2 0.229492 38.1334 0.229492C36.4572 0.229492 34.9715 0.764786 33.8667 1.7589C32.6096 2.86773 31.8477 4.51184 31.8477 6.42361C31.8477 8.33537 32.381 9.4442 33.2953 10.5148C34.4381 11.8148 36.1143 12.6177 38.0953 12.6177C40.0762 12.6177 40.381 12.3883 41.181 11.8913C41.9429 11.4707 42.5524 10.8589 43.0858 10.0942V10.0177C43.1238 10.0177 40.9905 8.41184 40.9905 8.41184L41.0286 8.33537Z" fill="#ED1E2C"/>
<path d="M28.5714 0.49707L26.0952 5.42942L23.619 0.49707H20.2666L24.6095 8.48825V12.2735H27.5047V8.48825L31.8856 0.49707H28.5714Z" fill="#ED1E2C"/>
<path d="M17.8282 0.49707H13.9806L9.6377 12.2353H12.6091L13.4472 9.97942H18.4758L19.3139 12.2353H22.2472L17.8282 0.49707ZM15.9234 3.21178L17.4853 7.34119H14.4377L15.9615 3.21178H15.9234Z" fill="#ED1E2C"/>
<path d="M9.33329 2.02648C8.91424 1.49119 8.38091 1.0706 7.69519 0.802953C7.19995 0.573541 6.39995 0.49707 5.79043 0.49707H0.19043V12.2353H3.08567V9.06178H5.79043C6.51424 9.06178 7.35233 8.90884 7.99995 8.60295C8.83805 8.2206 9.44757 7.53236 9.82852 6.69119C10.0952 6.11766 10.2476 5.42942 10.2476 4.74119C10.2476 3.70883 9.90472 2.75295 9.33329 1.98825V2.02648ZM6.66662 6.2706C6.43805 6.38531 6.09519 6.50001 5.59995 6.50001H2.93329V3.13531H5.44757C5.86662 3.13531 6.28567 3.21178 6.51424 3.28825C6.8571 3.44119 7.08567 3.63236 7.23805 3.90001C7.39043 4.12942 7.42852 4.43531 7.42852 4.77942C7.42852 5.54413 7.16186 6.04119 6.62852 6.2706H6.66662Z" fill="#ED1E2C"/>
</g>
<defs>
<clipPath id="clip0_2355_3228">
<rect width="56" height="13" fill="white"/>
</clipPath>
</defs>
</svg>
