<svg width="19" height="19" viewBox="0 0 19 19" fill="none" xmlns="http://www.w3.org/2000/svg">
<path d="M14.5699 2.30127H3.83399C2.98695 2.30127 2.30029 2.98793 2.30029 3.83497V14.5709C2.30029 15.4179 2.98695 16.1046 3.83399 16.1046H14.5699C15.4169 16.1046 16.1036 15.4179 16.1036 14.5709V3.83497C16.1036 2.98793 15.4169 2.30127 14.5699 2.30127Z" stroke="#D1D5DC" stroke-width="1.5337" stroke-linecap="round" stroke-linejoin="round"/>
<path d="M6.90138 8.43556C7.74841 8.43556 8.43507 7.7489 8.43507 6.90186C8.43507 6.05482 7.74841 5.36816 6.90138 5.36816C6.05434 5.36816 5.36768 6.05482 5.36768 6.90186C5.36768 7.7489 6.05434 8.43556 6.90138 8.43556Z" stroke="#D1D5DC" stroke-width="1.5337" stroke-linecap="round" stroke-linejoin="round"/>
<path d="M16.1033 11.503L13.7368 9.13655C13.4492 8.84902 13.0592 8.6875 12.6525 8.6875C12.2458 8.6875 11.8558 8.84902 11.5682 9.13655L4.60059 16.1041" stroke="#D1D5DC" stroke-width="1.5337" stroke-linecap="round" stroke-linejoin="round"/>
</svg>
