<svg width="38" height="38" viewBox="0 0 38 38" fill="none" xmlns="http://www.w3.org/2000/svg">
<rect width="37.8605" height="37.8605" rx="18.9302" fill="#CC9483"/>
<path d="M21.1407 26.3562C21.1684 26.4252 21.2166 26.4841 21.2787 26.525C21.3409 26.5659 21.414 26.5868 21.4884 26.5849C21.5628 26.583 21.6348 26.5584 21.6947 26.5144C21.7547 26.4704 21.7998 26.4091 21.8239 26.3387L26.5635 12.4845C26.5868 12.4199 26.5913 12.35 26.5763 12.283C26.5614 12.2159 26.5277 12.1545 26.4791 12.1059C26.4305 12.0574 26.3691 12.0236 26.3021 12.0087C26.235 11.9937 26.1651 11.9982 26.1005 12.0215L12.2463 16.7611C12.1759 16.7852 12.1146 16.8303 12.0706 16.8903C12.0266 16.9503 12.002 17.0223 12.0001 17.0966C11.9982 17.171 12.0191 17.2442 12.06 17.3063C12.1009 17.3685 12.1598 17.4166 12.2288 17.4443L18.0111 19.7631C18.1939 19.8363 18.36 19.9457 18.4993 20.0848C18.6387 20.2239 18.7484 20.3898 18.8219 20.5724L21.1407 26.3562Z" stroke="#F3F4F6" stroke-width="1.45833" stroke-linecap="round" stroke-linejoin="round"/>
<path d="M26.4766 12.1094L18.4995 20.0857" stroke="#F3F4F6" stroke-width="1.45833" stroke-linecap="round" stroke-linejoin="round"/>
</svg>
