<svg width="25" height="25" viewBox="0 0 25 25" fill="none" xmlns="http://www.w3.org/2000/svg">
<path d="M12.25 12.9792C12.6527 12.9792 12.9792 12.6527 12.9792 12.25C12.9792 11.8473 12.6527 11.5209 12.25 11.5209C11.8473 11.5209 11.5209 11.8473 11.5209 12.25C11.5209 12.6527 11.8473 12.9792 12.25 12.9792Z" stroke="#99A1AF" stroke-width="1.45833" stroke-linecap="round" stroke-linejoin="round"/>
<path d="M12.25 7.87496C12.6527 7.87496 12.9792 7.5485 12.9792 7.14579C12.9792 6.74308 12.6527 6.41663 12.25 6.41663C11.8473 6.41663 11.5209 6.74308 11.5209 7.14579C11.5209 7.5485 11.8473 7.87496 12.25 7.87496Z" stroke="#99A1AF" stroke-width="1.45833" stroke-linecap="round" stroke-linejoin="round"/>
<path d="M12.25 18.0833C12.6527 18.0833 12.9792 17.7569 12.9792 17.3542C12.9792 16.9515 12.6527 16.625 12.25 16.625C11.8473 16.625 11.5209 16.9515 11.5209 17.3542C11.5209 17.7569 11.8473 18.0833 12.25 18.0833Z" stroke="#99A1AF" stroke-width="1.45833" stroke-linecap="round" stroke-linejoin="round"/>
</svg>
