<svg width="35" height="35" viewBox="7 7 35 35" fill="none" xmlns="http://www.w3.org/2000/svg">
<g clip-path="url(#clip0_807_709)">
<g filter="url(#filter0_d_807_709)">
<path d="M23.8073 10.3468C23.8712 10.2177 23.9699 10.109 24.0923 10.033C24.2147 9.95702 24.3559 9.91675 24.5 9.91675C24.6441 9.91675 24.7853 9.95702 24.9077 10.033C25.0301 10.109 25.1288 10.2177 25.1927 10.3468L28.5615 17.1703C28.7834 17.6195 29.111 18.008 29.5161 18.3027C29.9213 18.5973 30.3919 18.7893 30.8875 18.862L38.4213 19.9645C38.564 19.9852 38.6981 20.0454 38.8084 20.1383C38.9188 20.2313 39.0009 20.3532 39.0455 20.4904C39.0901 20.6276 39.0954 20.7745 39.0609 20.9145C39.0263 21.0546 38.9533 21.1821 38.85 21.2828L33.4017 26.5883C33.0424 26.9384 32.7735 27.3706 32.6183 27.8477C32.4631 28.3248 32.4261 28.8325 32.5106 29.327L33.7969 36.8228C33.8221 36.9655 33.8067 37.1124 33.7524 37.2468C33.6981 37.3811 33.6072 37.4975 33.49 37.5826C33.3727 37.6678 33.2339 37.7183 33.0894 37.7283C32.9449 37.7384 32.8004 37.7076 32.6725 37.6395L25.9379 34.0987C25.4942 33.8657 25.0005 33.7439 24.4993 33.7439C23.9981 33.7439 23.5044 33.8657 23.0606 34.0987L16.3275 37.6395C16.1997 37.7072 16.0554 37.7376 15.9111 37.7274C15.7668 37.7171 15.6283 37.6666 15.5113 37.5815C15.3943 37.4964 15.3035 37.3802 15.2493 37.2461C15.1951 37.112 15.1796 36.9653 15.2046 36.8228L16.4894 29.3285C16.5743 28.8337 16.5375 28.3257 16.3823 27.8483C16.227 27.3709 15.958 26.9385 15.5984 26.5883L10.15 21.2843C10.0459 21.1837 9.97209 21.0559 9.93705 20.9155C9.902 20.775 9.90712 20.6275 9.9518 20.4898C9.99649 20.3521 10.079 20.2297 10.1898 20.1366C10.3006 20.0434 10.4354 19.9833 10.5788 19.9631L18.1111 18.862C18.6073 18.7898 19.0785 18.5981 19.4842 18.3034C19.8899 18.0088 20.2179 17.6199 20.44 17.1703L23.8073 10.3468Z" stroke="#D1D5DC" stroke-width="2.91667" stroke-linecap="round" stroke-linejoin="round" shape-rendering="crispEdges"/>
</g>
</g>
<defs>
<filter id="filter0_d_807_709" x="4.45557" y="8.4585" width="40.0859" height="38.73" filterUnits="userSpaceOnUse" color-interpolation-filters="sRGB">
<feFlood flood-opacity="0" result="BackgroundImageFix"/>
<feColorMatrix in="SourceAlpha" type="matrix" values="0 0 0 0 0 0 0 0 0 0 0 0 0 0 0 0 0 0 127 0" result="hardAlpha"/>
<feOffset dy="4"/>
<feGaussianBlur stdDeviation="2"/>
<feComposite in2="hardAlpha" operator="out"/>
<feColorMatrix type="matrix" values="0 0 0 0 0.819608 0 0 0 0 0.835294 0 0 0 0 0.862745 0 0 0 0.25 0"/>
<feBlend mode="normal" in2="BackgroundImageFix" result="effect1_dropShadow_807_709"/>
<feBlend mode="normal" in="SourceGraphic" in2="effect1_dropShadow_807_709" result="shape"/>
</filter>
<clipPath id="clip0_807_709">
<rect width="35" height="35" fill="white" transform="translate(7 7)"/>
</clipPath>
</defs>
</svg>
