<svg width="12" height="12" viewBox="0 0 12 12" fill="none" xmlns="http://www.w3.org/2000/svg">
<path d="M6.59369 1.24811H3.12473C2.45351 1.24811 1.80011 1.58075 1.47341 2.16287C1.27565 2.51443 1.20433 2.92314 1.27135 3.32089C1.33836 3.71865 1.53965 4.08143 1.84169 4.34879V6.17237C1.84169 6.43967 2.16245 6.57035 2.34659 6.38027L3.92069 4.81211H6.52241C7.38371 4.81211 8.17373 4.22999 8.34004 3.38651C8.55982 2.24603 7.69259 1.24811 6.59369 1.24811ZM8.96969 5.40611H5.47696C4.61566 5.40611 3.81971 5.98823 3.65933 6.83171C3.60692 7.0906 3.61264 7.35789 3.67608 7.6143C3.73952 7.8707 3.8591 8.10983 4.02617 8.31441C4.19325 8.519 4.40366 8.68394 4.64222 8.79733C4.88079 8.91072 5.14155 8.96973 5.40568 8.97011H8.07869L9.65279 10.5442C9.6943 10.5849 9.74684 10.6125 9.80391 10.6237C9.86097 10.6348 9.92004 10.6289 9.9738 10.6068C10.0276 10.5846 10.0736 10.5472 10.1063 10.4991C10.139 10.4511 10.1569 10.3944 10.1577 10.3363V8.51273C10.5319 8.18009 10.7517 7.69895 10.7517 7.19405C10.7517 6.72088 10.5641 6.26701 10.2301 5.93188C9.89609 5.59675 9.44285 5.40768 8.96969 5.40611Z" fill="#6F4A00"/>
</svg>
