<svg width="12" height="12" viewBox="0 0 12 12" fill="none" xmlns="http://www.w3.org/2000/svg">
<path d="M2.11171 10.5201L9.87016 8.29369L10.1181 8.06562V3.63987L9.79614 3.01617L1.62189 5.32985V10.0372C1.62189 10.4231 1.77813 10.5998 2.11171 10.5201Z" fill="#E19747"/>
<path d="M5.07485 1.91675L1.9343 4.82199C1.32131 5.34552 1.63978 5.70746 2.22851 5.57768L9.4817 3.49679C9.66818 3.45269 9.78599 3.4382 9.78599 3.65397V4.92027C9.78599 5.13668 9.80615 5.24945 9.66818 5.29292C9.66818 5.29292 2.67361 7.40153 2.52304 7.44248C2.37247 7.48343 2.03794 7.5458 1.93399 7.53068C1.83035 7.51556 1.69868 7.44248 1.63978 7.44248C1.58087 7.44248 1.58087 7.4765 1.58087 7.63872V8.32133C1.58087 8.37267 1.62497 8.40575 1.62497 8.40575C1.71391 8.46161 1.81319 8.49896 1.91689 8.51558C2.02059 8.5322 2.12658 8.52773 2.22851 8.50245L9.55037 6.3825C9.66818 6.35289 9.78599 6.43164 9.78599 6.57875V8.24762C9.78599 8.34905 9.84742 8.3544 9.89057 8.34905C10.2031 8.25896 10.4191 8.07405 10.4191 7.75653V3.65397C10.4191 3.38528 10.2248 2.9364 9.78599 2.80032L6.31154 1.9851C5.98174 1.91643 5.34386 1.70822 5.07485 1.91675Z" fill="#FFDEA7"/>
<path d="M4.75669 2.54953C4.79638 2.35171 4.86221 1.7929 5.54923 1.65619L6.29137 2.03639L6.56164 2.84752C6.30838 3.52823 5.78548 3.47972 5.57663 3.47972H4.95829C4.75669 3.47972 4.64203 3.36506 4.66975 3.15433L4.75669 2.54953Z" fill="#F8312F"/>
<path d="M6.30526 2.50365C6.16666 2.34773 6.20446 2.1099 6.20446 2.1099C6.20446 2.1099 5.97955 2.1099 5.86993 1.9902L5.49413 1.60118C5.47397 1.57346 5.49413 1.54353 5.52185 1.52306C5.52185 1.52306 5.74267 1.35579 6.08539 1.57346C6.27502 1.71332 6.63538 2.15999 6.72673 2.34773C6.89273 2.63123 6.68074 2.87472 6.68074 2.87472C6.65648 2.90465 6.62813 2.91315 6.5938 2.87472L6.30526 2.50365Z" fill="#86D72F"/>
</svg>
