<svg width="35" height="35" viewBox="0 0 35 35" fill="none" xmlns="http://www.w3.org/2000/svg">
<g clip-path="url(#clip0_807_701)">
<g filter="url(#filter0_d_807_701)">
<path d="M16.8073 3.3468C16.8712 3.21768 16.9699 3.10899 17.0923 3.033C17.2147 2.95702 17.3559 2.91675 17.5 2.91675C17.6441 2.91675 17.7853 2.95702 17.9077 3.033C18.0301 3.10899 18.1288 3.21768 18.1927 3.3468L21.5615 10.1703C21.7834 10.6195 22.111 11.008 22.5161 11.3027C22.9213 11.5973 23.3919 11.7893 23.8875 11.862L31.4213 12.9645C31.564 12.9852 31.6981 13.0454 31.8084 13.1383C31.9188 13.2313 32.0009 13.3532 32.0455 13.4904C32.0901 13.6276 32.0954 13.7745 32.0609 13.9145C32.0263 14.0546 31.9533 14.1821 31.85 14.2828L26.4017 19.5883C26.0424 19.9384 25.7735 20.3706 25.6183 20.8477C25.4631 21.3248 25.4261 21.8325 25.5106 22.327L26.7969 29.8228C26.8221 29.9655 26.8067 30.1124 26.7524 30.2468C26.6981 30.3811 26.6072 30.4975 26.49 30.5826C26.3727 30.6678 26.2339 30.7183 26.0894 30.7283C25.9449 30.7384 25.8004 30.7076 25.6725 30.6395L18.9379 27.0987C18.4942 26.8657 18.0005 26.7439 17.4993 26.7439C16.9981 26.7439 16.5044 26.8657 16.0606 27.0987L9.32752 30.6395C9.19967 30.7072 9.05539 30.7376 8.91109 30.7274C8.7668 30.7171 8.62828 30.6666 8.51128 30.5815C8.39429 30.4964 8.30353 30.3802 8.24931 30.2461C8.19509 30.112 8.1796 29.9653 8.2046 29.8228L9.48939 22.3285C9.57426 21.8337 9.5375 21.3257 9.38226 20.8483C9.22703 20.3709 8.95799 19.9385 8.59835 19.5883L3.15002 14.2843C3.04589 14.1837 2.97209 14.0559 2.93705 13.9155C2.902 13.775 2.90712 13.6275 2.9518 13.4898C2.99649 13.3521 3.07895 13.2297 3.1898 13.1366C3.30065 13.0434 3.43542 12.9833 3.57877 12.9631L11.1111 11.862C11.6073 11.7898 12.0785 11.5981 12.4842 11.3034C12.8899 11.0088 13.2179 10.6199 13.44 10.1703L16.8073 3.3468Z" fill="#FDC700"/>
<path d="M16.8073 3.3468C16.8712 3.21768 16.9699 3.10899 17.0923 3.033C17.2147 2.95702 17.3559 2.91675 17.5 2.91675C17.6441 2.91675 17.7853 2.95702 17.9077 3.033C18.0301 3.10899 18.1288 3.21768 18.1927 3.3468L21.5615 10.1703C21.7834 10.6195 22.111 11.008 22.5161 11.3027C22.9213 11.5973 23.3919 11.7893 23.8875 11.862L31.4213 12.9645C31.564 12.9852 31.6981 13.0454 31.8084 13.1383C31.9188 13.2313 32.0009 13.3532 32.0455 13.4904C32.0901 13.6276 32.0954 13.7745 32.0609 13.9145C32.0263 14.0546 31.9533 14.1821 31.85 14.2828L26.4017 19.5883C26.0424 19.9384 25.7735 20.3706 25.6183 20.8477C25.4631 21.3248 25.4261 21.8325 25.5106 22.327L26.7969 29.8228C26.8221 29.9655 26.8067 30.1124 26.7524 30.2468C26.6981 30.3811 26.6072 30.4975 26.49 30.5826C26.3727 30.6678 26.2339 30.7183 26.0894 30.7283C25.9449 30.7384 25.8004 30.7076 25.6725 30.6395L18.9379 27.0987C18.4942 26.8657 18.0005 26.7439 17.4993 26.7439C16.9981 26.7439 16.5044 26.8657 16.0606 27.0987L9.32752 30.6395C9.19967 30.7072 9.05539 30.7376 8.91109 30.7274C8.7668 30.7171 8.62828 30.6666 8.51128 30.5815C8.39429 30.4964 8.30353 30.3802 8.24931 30.2461C8.19509 30.112 8.1796 29.9653 8.2046 29.8228L9.48939 22.3285C9.57426 21.8337 9.5375 21.3257 9.38226 20.8483C9.22703 20.3709 8.95799 19.9385 8.59835 19.5883L3.15002 14.2843C3.04589 14.1837 2.97209 14.0559 2.93705 13.9155C2.902 13.775 2.90712 13.6275 2.9518 13.4898C2.99649 13.3521 3.07895 13.2297 3.1898 13.1366C3.30065 13.0434 3.43542 12.9833 3.57877 12.9631L11.1111 11.862C11.6073 11.7898 12.0785 11.5981 12.4842 11.3034C12.8899 11.0088 13.2179 10.6199 13.44 10.1703L16.8073 3.3468Z" stroke="#FDC700" stroke-width="2.91667" stroke-linecap="round" stroke-linejoin="round"/>
</g>
</g>
<defs>
<filter id="filter0_d_807_701" x="-2.54443" y="1.4585" width="40.0859" height="38.73" filterUnits="userSpaceOnUse" color-interpolation-filters="sRGB">
<feFlood flood-opacity="0" result="BackgroundImageFix"/>
<feColorMatrix in="SourceAlpha" type="matrix" values="0 0 0 0 0 0 0 0 0 0 0 0 0 0 0 0 0 0 127 0" result="hardAlpha"/>
<feOffset dy="4"/>
<feGaussianBlur stdDeviation="2"/>
<feComposite in2="hardAlpha" operator="out"/>
<feColorMatrix type="matrix" values="0 0 0 0 0.992157 0 0 0 0 0.780392 0 0 0 0 0 0 0 0 0.25 0"/>
<feBlend mode="normal" in2="BackgroundImageFix" result="effect1_dropShadow_807_701"/>
<feBlend mode="normal" in="SourceGraphic" in2="effect1_dropShadow_807_701" result="shape"/>
</filter>
<clipPath id="clip0_807_701">
<rect width="35" height="35" fill="white"/>
</clipPath>
</defs>
</svg>
