<svg width="12" height="12" viewBox="0 0 12 12" fill="none" xmlns="http://www.w3.org/2000/svg">
<path d="M2.28003 6.26785V8.94642C2.28003 9.38946 2.63865 9.74999 3.07934 9.74999H3.87865V5.46428H3.07934C2.63865 5.46428 2.28003 5.82482 2.28003 6.26785ZM9.51168 5.36518C9.4132 5.22913 9.28395 5.11858 9.13459 5.04266C8.98523 4.96674 8.82004 4.92764 8.65268 4.92857H6.82332L7.07057 3.68571C7.10527 3.51158 7.10109 3.33188 7.05833 3.15957C7.01558 2.98726 6.93531 2.82663 6.82332 2.68929C6.71163 2.55171 6.57084 2.44089 6.41118 2.3649C6.25152 2.28891 6.07703 2.24966 5.90038 2.25C5.66379 2.25 5.4533 2.40964 5.39362 2.62125L5.14636 3.31018C4.95324 3.84705 4.70726 4.36319 4.41206 4.85089V9.74999H7.82086C8.04823 9.75082 8.26983 9.67817 8.45299 9.54274C8.63616 9.40731 8.77117 9.21629 8.83812 8.99785L9.67047 6.31928C9.72115 6.15898 9.73317 5.98887 9.70556 5.82297C9.67795 5.65708 9.6115 5.50016 9.51168 5.36518Z" fill="#57504F"/>
</svg>
