<svg width="12" height="12" viewBox="0 0 12 12" fill="none" xmlns="http://www.w3.org/2000/svg">
<path d="M4.15686 5.25V9.75M7.15686 3.705L6.78186 5.25H8.96811C9.08454 5.25 9.19938 5.27711 9.30352 5.32918C9.40766 5.38125 9.49825 5.45685 9.56811 5.55C9.63797 5.64315 9.68518 5.75128 9.70601 5.86584C9.72684 5.98039 9.72071 6.09822 9.68811 6.21L8.81436 9.21C8.76892 9.36579 8.67418 9.50263 8.54436 9.6C8.41454 9.69737 8.25664 9.75 8.09436 9.75H3.03186C2.83295 9.75 2.64218 9.67098 2.50153 9.53033C2.36088 9.38968 2.28186 9.19891 2.28186 9V6C2.28186 5.80109 2.36088 5.61032 2.50153 5.46967C2.64218 5.32902 2.83295 5.25 3.03186 5.25H4.06686C4.20639 5.24993 4.34314 5.21093 4.46172 5.1374C4.5803 5.06386 4.67602 4.9587 4.73811 4.83375L6.03186 2.25C6.2087 2.25219 6.38276 2.29431 6.54104 2.37322C6.69931 2.45213 6.83771 2.56579 6.94589 2.7057C7.05407 2.84561 7.12923 3.00816 7.16576 3.1812C7.20229 3.35424 7.19925 3.5333 7.15686 3.705Z" stroke="currentColor" stroke-linecap="round" stroke-linejoin="round"/>
</svg>
